{"title":"Scream 4 2011 SWESUB 720p BRRip XviD-ASPiRE","uid":6588853,"size":3120334848,"categoryP":"video","categoryS":"hd___movies","magnet":"?xt=urn:btih:995814645f73f4f505821433812d537a315949d3&amp;dn=Scream+4+2011+SWESUB+720p+BRRip+XviD-ASPiRE&amp;tr=udp%3A%2F%2Ftracker.openbittorrent.com%3A80&amp;tr=udp%3A%2F%2Fopen.demonii.com%3A1337&amp;tr=udp%3A%2F%2Ftracker.coppersurfer.tk%3A6969&amp;tr=udp%3A%2F%2Fexodus.desync.com%3A6969","seeders":0,"leechers":1,"uploader":"xASPiREx","files":-1,"time":1312736223,"description":"Scream 4 2011 SWESUB 720p BRRip XviD-ASPiRE\n &lt;a href=&quot;\nhttp://www.imdb.com/title/tt1262416/&quot; rel=&quot;nofollow&quot; target=&quot;_NEW&quot;&gt;\nhttp://www.imdb.com/title/tt1262416/&lt;/a&gt;\n\nHandling:\n\nSkrÃƒÂ¤ckmÃƒÂ¤staren Wes Craven ÃƒÂ¤r tillbaka. Nytt ÃƒÂ¥rtionde. Nya regler. FÃƒÂ¶r tio ÃƒÂ¥r sedan \ntystnade skriken och mÃƒÂ¶rdaren, som dolde sitt ansikte bakom den numera legendariska \nScream-masken, fÃƒÂ¶rsvann. Sidney Prescott har lyckats ÃƒÂ¥tervÃƒÂ¤nda till ett relativt \nnormalt liv, mycket tack vare sitt skrivande. Men nu ÃƒÂ¤r det dags igen - mÃƒÂ¶rdaren \nhar ÃƒÂ¥tervÃƒÂ¤nt och skriken fÃƒÂ¥r en ny dimension.\n\niNFO:\n\nGenre: SkrÃƒÂ¤ck, Mysterium, Thriller\nRegi: Wes Craven\nMedverkande: Neve Campbell, Courteney Cox, David Arquette, Anna Paquin\nProduktionsland: USA\nSprÃƒÂ¥k: Engelska\nText: Svenska\n\nGeneral:\nFormat                           : AVI\nFormat/Info                      : Audio Video Interleave\nFormat profile                   : OpenDML\nFile size                        : 2.91 GiB\nDuration                         : 1h 50mn\nOverall bit rate                 : 3 757 Kbps\n\nVideo:\nID                               : 0\nFormat                           : MPEG-4 Visual\nFormat profile                   : Advanced Simple@L5\nFormat settings, BVOP            : 1\nFormat settings, QPel            : No\nFormat settings, GMC             : No warppoints\nFormat settings, Matrix          : Default (H.263)\nMuxing mode                      : Packed bitstream\nCodec ID                         : XVID\nCodec ID/Hint                    : XviD\nDuration                         : 1h 50mn\nBit rate                         : 3 300 Kbps\nWidth                            : 1 280 pixels\nHeight                           : 720 pixels\nDisplay aspect ratio             : 16:9\nFrame rate                       : 23.976 fps\nColor space                      : YUV\nChroma subsampling               : 4:2:0\nBit depth                        : 8 bits\nScan type                        : Progressive\nCompression mode                 : Lossy\nBits/(Pixel*Frame)               : 0.149\nStream size                      : 2.55 GiB (88%)\nWriting library                  : XviD 62\n\nAudio:\nID                               : 1\nFormat                           : AC-3\nFormat/Info                      : Audio Coding 3\nMode extension                   : CM (complete main)\nCodec ID                         : 2000\nDuration                         : 1h 50mn\nBit rate mode                    : Constant\nBit rate                         : 448 Kbps\nChannel(s)                       : 6 channels\nChannel positions                : Front: L C R, Side: L R, LFE\nSampling rate                    : 48.0 KHz\nBit depth                        : 16 bits\nCompression mode                 : Lossy\nStream size                      : 355 MiB (12%)\nAlignment                        : Split accross interleaves\nInterleave, duration             : 64 ms (1.53 video frames)\nInterleave, preload duration     : 500 ms\n\nASPiRE","torrent":{"xt":"urn:btih:995814645f73f4f505821433812d537a315949d3","amp;dn":"Scream+4+2011+SWESUB+720p+BRRip+XviD-ASPiRE","amp;tr":["udp%3A%2F%2Ftracker.openbittorrent.com%3A80","udp%3A%2F%2Fopen.demonii.com%3A1337","udp%3A%2F%2Ftracker.coppersurfer.tk%3A6969","udp%3A%2F%2Fexodus.desync.com%3A6969"],"infoHash":"995814645f73f4f505821433812d537a315949d3","infoHashBuffer":{"type":"Buffer","data":[153,88,20,100,95,115,244,245,5,130,20,51,129,45,83,122,49,89,73,211]},"announce":[],"urlList":[]}}